<svg width="384" height="81" viewBox="0 0 384 81" fill="none" xmlns="http://www.w3.org/2000/svg">
<path d="M50 23.9008L60 23.9008C62.1887 23.9008 64.356 24.3319 66.3781 25.1694C68.4002 26.007 70.2375 27.2347 71.7851 28.7823C73.3328 30.33 74.5604 32.1673 75.398 34.1894C76.2356 36.2115 76.6667 38.3787 76.6667 40.5674C76.6667 42.7561 76.2356 44.9234 75.398 46.9455C74.5604 48.9676 73.3328 50.8049 71.7851 52.3525C70.2375 53.9002 68.4002 55.1278 66.3781 55.9654C64.356 56.803 62.1887 57.2341 60 57.2341H50M30 57.2341H20C17.8113 57.2341 15.644 56.803 13.622 55.9654C11.5999 55.1278 9.76254 53.9002 8.2149 52.3525C5.08929 49.2269 3.33334 44.9877 3.33334 40.5674C3.33334 36.1471 5.08929 31.9079 8.2149 28.7823C11.3405 25.6567 15.5797 23.9008 20 23.9008H30" stroke="#141414" stroke-width="2" stroke-linecap="round" stroke-linejoin="round"/>
<path d="M26.6667 40.5674H53.3333" stroke="#141414" stroke-width="2" stroke-linecap="round" stroke-linejoin="round"/>
<path d="M122 23.9008L132 23.9008C134.189 23.9008 136.356 24.3319 138.378 25.1694C140.4 26.007 142.237 27.2347 143.785 28.7823C145.333 30.33 146.56 32.1673 147.398 34.1894C148.236 36.2115 148.667 38.3787 148.667 40.5674C148.667 42.7561 148.236 44.9234 147.398 46.9455C146.56 48.9676 145.333 50.8049 143.785 52.3525C142.237 53.9002 140.4 55.1278 138.378 55.9654C136.356 56.803 134.189 57.2341 132 57.2341H122M102 57.2341H92C89.8113 57.2341 87.644 56.803 85.622 55.9654C83.5999 55.1278 81.7625 53.9002 80.2149 52.3525C77.0893 49.2269 75.3333 44.9877 75.3333 40.5674C75.3333 36.1471 77.0893 31.9079 80.2149 28.7823C83.3405 25.6567 87.5797 23.9008 92 23.9008H102" stroke="#141414" stroke-width="2" stroke-linecap="round" stroke-linejoin="round"/>
<path d="M98.6667 40.5674H125.333" stroke="#141414" stroke-width="2" stroke-linecap="round" stroke-linejoin="round"/>
<path d="M194 23.9008L204 23.9008C206.189 23.9008 208.356 24.3319 210.378 25.1694C212.4 26.007 214.237 27.2347 215.785 28.7823C217.333 30.33 218.56 32.1673 219.398 34.1894C220.236 36.2115 220.667 38.3787 220.667 40.5674C220.667 42.7561 220.236 44.9234 219.398 46.9455C218.56 48.9676 217.333 50.8049 215.785 52.3525C214.237 53.9002 212.4 55.1278 210.378 55.9654C208.356 56.803 206.189 57.2341 204 57.2341H194M174 57.2341H164C161.811 57.2341 159.644 56.803 157.622 55.9654C155.6 55.1278 153.763 53.9002 152.215 52.3525C149.089 49.2269 147.333 44.9877 147.333 40.5674C147.333 36.1471 149.089 31.9079 152.215 28.7823C155.34 25.6567 159.58 23.9008 164 23.9008H174" stroke="#141414" stroke-width="2" stroke-linecap="round" stroke-linejoin="round"/>
<path d="M170.667 40.5674H197.333" stroke="#141414" stroke-width="2" stroke-linecap="round" stroke-linejoin="round"/>
<path d="M244 39.5674C243.448 39.5674 243 40.0151 243 40.5674C243 41.1197 243.448 41.5674 244 41.5674V39.5674ZM284 40.5674L274 34.7939V46.3409L284 40.5674ZM244 41.5674H275V39.5674H244V41.5674Z" fill="#005AE2"/>
<path d="M354 23.9008L364 23.9008C366.189 23.9008 368.356 24.3319 370.378 25.1694C372.4 26.007 374.237 27.2347 375.785 28.7823C377.333 30.33 378.56 32.1673 379.398 34.1894C380.236 36.2115 380.667 38.3787 380.667 40.5674C380.667 42.7561 380.236 44.9234 379.398 46.9455C378.56 48.9676 377.333 50.8049 375.785 52.3525C374.237 53.9002 372.4 55.1278 370.378 55.9654C368.356 56.803 366.189 57.2341 364 57.2341H354M334 57.2341H324C321.811 57.2341 319.644 56.803 317.622 55.9654C315.6 55.1278 313.763 53.9002 312.215 52.3525C309.089 49.2269 307.333 44.9877 307.333 40.5674C307.333 36.1471 309.089 31.9079 312.215 28.7823C315.34 25.6567 319.58 23.9008 324 23.9008H334" stroke="#141414" stroke-width="2" stroke-linecap="round" stroke-linejoin="round"/>
<path d="M330.667 40.5674H357.333" stroke="#141414" stroke-width="2" stroke-linecap="round" stroke-linejoin="round"/>
</svg>
